<svg width="48" height="48" viewBox="0 0 48 48" fill="none" xmlns="http://www.w3.org/2000/svg">
<path d="M24 4C21.8783 4 19.8434 4.84285 18.3431 6.34315C16.8429 7.84344 16 9.87827 16 12C16 14.1217 16.8429 16.1566 18.3431 17.6569C19.8434 19.1571 21.8783 20 24 20C26.1217 20 28.1566 19.1571 29.6569 17.6569C31.1571 16.1566 32 14.1217 32 12C32 9.87827 31.1571 7.84344 29.6569 6.34315C28.1566 4.84285 26.1217 4 24 4ZM34 24H14C12.4087 24 10.8826 24.6321 9.75736 25.7574C8.63214 26.8826 8 28.4087 8 30C8 34.464 9.836 38.04 12.848 40.46C15.812 42.84 19.788 44 24 44C28.212 44 32.188 42.84 35.152 40.46C38.16 38.04 40 34.464 40 30C40 28.4087 39.3679 26.8826 38.2426 25.7574C37.1174 24.6321 35.5913 24 34 24Z" fill="#246BFD"/>
</svg>
